/* XPM */
static char *_6500b6c8bf04c15d9bf1a08b7965968bSg8xSGRv5iFIQxN[] = {
/* columns rows colors chars-per-pixel */
"64 64 190 2 ",
"   c black",
".  c #010000",
"X  c #000100",
"o  c #010101",
"O  c #020001",
"+  c #000201",
"@  c #000002",
"#  c #010002",
"$  c #010103",
"%  c #020003",
"&  c #020005",
"*  c #020106",
"=  c #040005",
"-  c #040205",
";  c #070007",
":  c #060107",
">  c #090005",
",  c #060108",
"<  c #06000A",
"1  c #090008",
"2  c #0A000B",
"3  c #0B000B",
"4  c #0E020E",
"5  c #1E101F",
"6  c #200F1F",
"7  c #20101D",
"8  c #1F0E20",
"9  c #200F21",
"0  c #261326",
"q  c #271427",
"w  c #281326",
"e  c #291328",
"r  c #2E142D",
"t  c #2F1230",
"y  c #311231",
"u  c #3C1E3A",
"i  c #3C1D3C",
"p  c #3C1D3D",
"a  c #3E1C3D",
"s  c #3E1C3F",
"d  c #401D3E",
"f  c #3C1E40",
"g  c #411B40",
"h  c #411F40",
"j  c #471E4A",
"k  c #4E254D",
"l  c #4C264D",
"z  c #4D2750",
"x  c #532853",
"c  c #582E5C",
"v  c #602E5F",
"b  c #612F62",
"n  c #632E62",
"m  c #642F63",
"M  c #642F65",
"N  c #603062",
"B  c #683367",
"V  c #68316A",
"C  c #6B316C",
"Z  c #763975",
"A  c #773978",
"S  c #803F7F",
"D  c #813E81",
"F  c #803F81",
"G  c #833E81",
"H  c #814080",
"J  c #854083",
"K  c #834284",
"L  c #864088",
"P  c #904691",
"I  c #934A93",
"U  c #944892",
"Y  c #944893",
"T  c #964A95",
"R  c #954896",
"E  c #964798",
"W  c #974A9A",
"Q  c #984B9B",
"!  c #9F4D9F",
"~  c #9E529D",
"^  c #A54FA8",
"/  c #AA52A8",
"(  c #B255AE",
")  c #B157B1",
"_  c #B457B2",
"`  c #B557B5",
"'  c #B158B2",
"]  c #B258B2",
"[  c #B359B3",
"{  c #B558B3",
"}  c #B35AB6",
"|  c #BD5CBD",
" . c #BF5EBF",
".. c #BF5FC0",
"X. c #BE60C0",
"o. c #C35DC0",
"O. c #C05FC0",
"+. c #C25EC1",
"@. c #C15FC2",
"#. c #C160C1",
"$. c #C561C4",
"%. c #C463C4",
"&. c #C864C7",
"*. c #CA64CA",
"=. c #CA63CC",
"-. c #CE67D0",
";. c #D266D3",
":. c #D367D4",
">. c #DB6BD9",
",. c #D96CD9",
"<. c #DF6FDF",
"1. c #DF6EE0",
"2. c #E16FE0",
"3. c #E06FE1",
"4. c #E16FE1",
"5. c #E070E0",
"6. c #E270E2",
"7. c #E671E4",
"8. c #E471E6",
"9. c #E772E7",
"0. c #E673E8",
"q. c #E673EA",
"w. c #E972E8",
"e. c #E873E8",
"r. c #EA73E9",
"t. c #EB71EA",
"y. c #E872EA",
"u. c #EA73EB",
"i. c #E974E9",
"p. c #EB74EA",
"a. c #E976EB",
"s. c #EB76EB",
"d. c #EB73EE",
"f. c #ED73EC",
"g. c #EB74EC",
"h. c #EC75ED",
"j. c #EE74ED",
"k. c #EF75EE",
"l. c #ED76EE",
"z. c #EE77EF",
"x. c #F076EF",
"c. c #F075F1",
"v. c #F177F0",
"b. c #F377F3",
"n. c #F47AF3",
"m. c #F678F5",
"M. c #F779F6",
"N. c #F679F7",
"B. c #F67AF6",
"V. c #F77BF7",
"C. c #F77DF6",
"Z. c #FA7CF7",
"A. c #F77AFA",
"S. c #F77CF8",
"D. c #FB7AF9",
"F. c #FC7BF9",
"G. c #FD7AFA",
"H. c #FA7CF9",
"J. c #FB7DFB",
"K. c #FA7EFA",
"L. c #FD7CFB",
"P. c #FC7EFB",
"I. c #FD7BFF",
"U. c #FB7CFD",
"Y. c #FE7DFC",
"T. c #FF7EFD",
"R. c #FE7DFE",
"E. c #FF7DFF",
"W. c #FD7EFF",
"Q. c #FF7FFE",
"!. c #FF7EFF",
"~. c #FE7FFF",
"^. c #FF7FFF",
"/. c #FC80FF",
"(. c #FE80FE",
"). c #FDE3FE",
"_. c #FFE2FE",
"`. c #FFE3FF",
"'. c #FDE5FD",
"]. c #FEE4FD",
"[. c #FFE4FD",
"{. c #FDE4FF",
"}. c #FCE5FF",
"|. c #FDE5FF",
" X c #FFE4FE",
".X c #FFE5FE",
"XX c #FEE4FF",
"oX c #FFE4FF",
"OX c #FEE5FF",
"+X c #FEE6FF",
/* pixels */
"XX`.`.XXXX`.`.XXXXXXXXXXXXXXXXXXXXXXXXXXXXXXXXXXXXXXXXXXXXXXXXXXXXXXXXXXXXXXXXXXXXXXXXXXXXXXXXXXXXXXXXXXXXXXXXXXXXXX`.XX`.XXXXXX",
"(.!.!.!.!.!.!.!.!.!.!.!.!.!.!.!.!.!.!.!.!.!.!.!.!.!.!.!.!.!.!.!.!.!.!.!.!.!.!.!.!.!.!.!.!.!.!.!.!.!.!.!.!.!.!.!.(.!.(.!.!.!.!.XX",
"!.D.B.b.h.f.h.g.h.h.h.h.h.h.h.h.h.h.h.h.h.h.h.h.h.h.h.h.h.h.h.h.h.h.h.h.h.h.h.h.h.h.h.h.h.h.h.h.h.h.h.h.h.h.h.h.s.d.h.x.B.!.L.XX",
"B.r.>.*.| { [ [ [ [ [ [ [ [ [ [ [ [ [ [ [ [ [ [ [ [ [ [ [ [ [ [ [ [ [ [ [ [ [ [ [ [ [ [ [ [ [ [ [ [ [ [ [ [ [ [ { } [ $.1.B.!.`.",
"h.;.) P Z m b M b b b b b b b b b b b b b b b b b b b b b b b b b b b b b b b b b b b b b b b b b b b b b b b b v N C L O.s.!.XX",
"8.| I B h w 0 e q q q q q q q q q q q q q q q q q q q q q q q q q q q q q q q q q q q q q q q q q q q q q q q q t r y c ^ 8.Z.XX",
"<.` F z 9 o o = & & & & & & & & & & & & & & & & & & & & & & & & & & & & & & & & & & & & & & & & & & & & & & & & o = = g Q <.I.`.",
"5._ S l 8 o o o o o o o o o o o o o o o o o o o o o o o o o o o o o o o o o o o o o o o o o o o o o o o o o o o < o 2 u T 5.G.XX",
"3.[ F l 6 o o o o o o o o o o o o o o o o o o o o o o o o o o o o o o o o o o o o o o o o o o o o o o o o o o o o o o a T 5.K.XX",
"3.[ F l 6 o o o o o o o o o o o o o o o o o o o o o o o o o o o o o o o o o o o o o o o o o o o o o o o o o o o o o o a T 5.K.XX",
"3.[ F l 6 o o o o o o o o o o o o o o o o o o o o o o o o o o o o o o o o o o o o o o o o o o o o o o o o o o o o o o a T 5.K.XX",
"3.[ F l 6 o o o o o o o o o o o o o o o o o o o o o o o o o o o o o o o o o o o o o o o o o o o o o o o o o o o o o o a T 5.K.XX",
"3.[ F l 6 o o o o o o o o o o o o o o o o o o o o o o o o o o o o o o o o o o o o o o o o o o o o o o o o o o o o o o a T 5.K.XX",
"3.[ F l 6 o o o o o o o o o o o o o o o o o o o o o o o o o o o o o o o o o o o o o o o o o o o o o o o o o o o o o o a T 5.K.XX",
"3.[ F l 6 o o o o o o o o o o o o o o o o o o o o o o o o o o o o o o o o o o o o o o o o o o o o o o o o o o o o o o a T 5.K.XX",
"3.[ F l 6 o o o o o o o o o o o o o o o o o o o o o o o o o o o o o o o o o o o o o o o o o o o o o o o o o o o o o o a T 5.K.XX",
"3.[ F l 6 o o o o o o o o o o o o o o o o o o o o o o o o o o o o o o o o o o o o o o o o o o o o o o o o o o o o o o a T 5.K.XX",
"3.[ F l 6 o o o o o o o o o o o o o o o o o o o o o o o o o o o o o o o o o o o o o o o o o o o o o o o o o o o o o o a T 5.K.XX",
"3.[ F l 6 o o o o o o o o o o o o o o o o o o o o o o o o o o o o o o o o o o o o o o o o o o o o o o o o o o o o o o a T 5.K.XX",
"3.[ F l 6 o o o o o o o o o o o o o o o o o o o o o o o o o o o o o o o o o o o o o o o o o o o o o o o o o o o o o o a T 5.K.XX",
"3.[ F l 6 o o o o o o o o o o o o o o o o o o o o o o o o o o o o o o o o o o o o o o o o o o o o o o o o o o o o o o a T 5.K.XX",
"3.[ F l 6 o o o o o o o o o o o o o o o o o o o o o o o o o o o o o o o o o o o o o o o o o o o o o o o o o o o o o o a T 5.K.XX",
"3.[ F l 6 o o o o o o o o o o o o o o o o o o o o o o o o o o o o o o o o o o o o o o o o o o o o o o o o o o o o o o a T 5.K.XX",
"3.[ F l 6 o o o o o o o o o o o o o o o o o o o o o o o o o o o o o o o o o o o o o o o o o o o o o o o o o o o o o o a T 5.K.XX",
"3.[ F l 6 o o o o o o o o o o o o o o o o o o o o o o o o o o o o o o o o o o o o o o o o o o o o o o o o o o o o o o a T 5.K.XX",
"3.[ F l 6 o o o o o o o o o o o o o o o o o o o o o o o o o o o o o o o o o o o o o o o o o o o o o o o o o o o o o o a T 5.K.XX",
"3.[ F l 6 o o o o o o o o o o o o o o o o o o o o o o o o o o o o o o o o o o o o o o o o o o o o o o o o o o o o o o a T 5.K.XX",
"3.[ F l 6 o o o o o o o o o o o o o o o o o o o o o o o o o o o o o o o o o o o o o o o o o o o o o o o o o o o o o o a T 5.K.XX",
"3.[ F l 6 o o o o o o o o o o o o o o o o o o o o o o o o o o o o o o o o o o o o o o o o o o o o o o o o o o o o o o a T 5.K.XX",
"3.[ F l 6 o o o o o o o o o o o o o o o o o o o o o o o o o o o o o o o o o o o o o o o o o o o o o o o o o o o o o o a T 5.K.XX",
"3.[ F l 6 o o o o o o o o o o o o o o o o o o o o o o o o o o o o o o o o o o o o o o o o o o o o o o o o o o o o o o a T 5.K.XX",
"3.[ F l 6 o o o o o o o o o o o o o o o o o o o o o o o o o o o o o o o o o o o o o o o o o o o o o o o o o o o o o o a T 5.K.XX",
"3.[ F l 6 o o o o o o o o o o o o o o o o o o o o o o o o o o o o o o o o o o o o o o o o o o o o o o o o o o o o o o a T 5.K.XX",
"3.[ F l 6 o o o o o o o o o o o o o o o o o o o o o o o o o o o o o o o o o o o o o o o o o o o o o o o o o o o o o o a T 5.K.XX",
"3.[ F l 6 o o o o o o o o o o o o o o o o o o o o o o o o o o o o o o o o o o o o o o o o o o o o o o o o o o o o o o a T 5.K.XX",
"3.[ F l 6 o o o o o o o o o o o o o o o o o o o o o o o o o o o o o o o o o o o o o o o o o o o o o o o o o o o o o o a T 5.K.XX",
"3.[ F l 6 o o o o o o o o o o o o o o o o o o o o o o o o o o o o o o o o o o o o o o o o o o o o o o o o o o o o o o a T 5.K.XX",
"3.[ F l 6 o o o o o o o o o o o o o o o o o o o o o o o o o o o o o o o o o o o o o o o o o o o o o o o o o o o o o o a T 5.K.XX",
"3.[ F l 6 o o o o o o o o o o o o o o o o o o o o o o o o o o o o o o o o o o o o o o o o o o o o o o o o o o o o o o a T 5.K.XX",
"3.[ F l 6 o o o o o o o o o o o o o o o o o o o o o o o o o o o o o o o o o o o o o o o o o o o o o o o o o o o o o o a T 5.K.XX",
"3.[ F l 6 o o o o o o o o o o o o o o o o o o o o o o o o o o o o o o o o o o o o o o o o o o o o o o o o o o o o o o a T 5.K.XX",
"3.[ F l 6 o o o o o o o o o o o o o o o o o o o o o o o o o o o o o o o o o o o o o o o o o o o o o o o o o o o o o o a T 5.K.XX",
"3.[ F l 6 o o o o o o o o o o o o o o o o o o o o o o o o o o o o o o o o o o o o o o o o o o o o o o o o o o o o o o a T 5.K.XX",
"3.[ F l 6 o o o o o o o o o o o o o o o o o o o o o o o o o o o o o o o o o o o o o o o o o o o o o o o o o o o o o o a T 5.K.XX",
"3.[ F l 6 o o o o o o o o o o o o o o o o o o o o o o o o o o o o o o o o o o o o o o o o o o o o o o o o o o o o o o a T 5.K.XX",
"3.[ F l 6 o o o o o o o o o o o o o o o o o o o o o o o o o o o o o o o o o o o o o o o o o o o o o o o o o o o o o o a T 5.K.XX",
"3.[ F l 6 o o o o o o o o o o o o o o o o o o o o o o o o o o o o o o o o o o o o o o o o o o o o o o o o o o o o o o a T 5.K.XX",
"3.[ F l 6 o o o o o o o o o o o o o o o o o o o o o o o o o o o o o o o o o o o o o o o o o o o o o o o o o o o o o o a T 5.K.XX",
"3.[ F l 6 o o o o o o o o o o o o o o o o o o o o o o o o o o o o o o o o o o o o o o o o o o o o o o o o o o o o o o a T 5.K.XX",
"3.[ F l 6 o o o o o o o o o o o o o o o o o o o o o o o o o o o o o o o o o o o o o o o o o o o o o o o o o o o o o o a T 5.K.XX",
"3.[ F l 6 o o o o o o o o o o o o o o o o o o o o o o o o o o o o o o o o o o o o o o o o o o o o o o o o o o o o o o a T 5.K.XX",
"3.[ F l 6 o o o o o o o o o o o o o o o o o o o o o o o o o o o o o o o o o o o o o o o o o o o o o o o o o o o o o o a T 5.K.XX",
"3.[ F l 6 o o o o o o o o o o o o o o o o o o o o o o o o o o o o o o o o o o o o o o o o o o o o o o o o o o o o o o a T 5.K.XX",
"3.[ F l 6 o o o o o o o o o o o o o o o o o o o o o o o o o o o o o o o o o o o o o o o o o o o o o o o o o o o o o o a T 5.K.XX",
"3.[ F l 6 o o o o o o o o o o o o o o o o o o o o o o o o o o o o o o o o o o o o o o o o o o o o o o o o o o o o o o a T 5.K.XX",
"3.[ F l 6 o o o o o o o o o o o o o o o o o o o o o o o o o o o o o o o o o o o o o o o o o o o o o o o o o o o o o o a T 5.K.XX",
"5.[ S l 7 o o o o o o o o o o o o o o o o o o o o o o o o o o o o o o o o o o o o o o o o o o o o o o o o o o o < o 2 u E 5.G.XX",
"3.` F l 9 & o o o o o o o o o o o o o o o o o o o o o o o o o o o o o o o o o o o o o o o o o o o o o o o o o o o & = d W <.U.XX",
"5.[ F l 5 o o o o o o o o o o o o o o o o o o o o o o o o o o o o o o o o o o o o o o o o o o o o o o o o o o o 2 > 4 f U 5.K.`.",
"r.$.! A x a a a a a a a a a a a a a a a a a a a a a a a a a a a a a a a a a a a a a a a a a a a a a a a a a a a a a j V ( q.L.XX",
"h.,.#./ U J J J J J J J J J J J J J J J J J J J J J J J J J J J J J J J J J J J J J J J J J J J J J J J J J J J H K F ~ =.b.!.`.",
"A.h.3.:.&.O...X.O.O.O.O.O.O.O.O.O.O.O.O.O.O.O.O.O.O.O.O.O.O.O.O.O.O.O.O.O.O.O.O.O.O.O.O.O.O.O.O.O.O.O.O.O.O.O.O.O.O.O.-.8.S.K.XX",
"K.C.n.b.s.r.r.r.s.s.s.s.s.s.s.s.s.s.s.s.s.s.s.s.s.s.s.s.s.s.s.s.s.s.s.s.s.s.s.s.s.s.s.s.s.s.s.s.s.s.s.s.s.s.s.s.q.r.s.h.B.!.!.XX",
"`.XXXX`.XXXX`.XXXXXXXXXXXXXXXXXXXXXXXXXXXXXXXXXXXXXXXXXXXXXXXXXXXXXXXXXXXXXXXXXXXXXXXXXXXXXXXXXXXXXXXXXXXXXXXXXXXXXXXX`.XXXXXXXX"
};
